<svg width="202" height="233" viewBox="0 0 202 233" fill="none" xmlns="http://www.w3.org/2000/svg">
<path d="M16.1353 60H16V60.1353H16.1353V60Z" fill="white"/>
<path d="M83.4306 72.8188L107.867 84.6869L83.4306 96.5684L58.994 84.6869L83.4306 72.8188Z" fill="#345B63"/>
<path d="M56.0304 88.351L81.1405 100.556V130.866L56.0304 118.661V88.351Z" fill="#345B63"/>
<path d="M85.7207 130.866V100.556L110.831 88.351V118.661L85.7207 130.866Z" fill="#345B63"/>
<path d="M50.2109 123.995L74.6475 135.877L50.2109 147.758L25.7609 135.877L50.2109 123.995Z" fill="#345B63"/>
<path d="M22.8107 139.541L47.9073 151.746V182.056L22.8107 169.851V139.541Z" fill="#345B63"/>
<path d="M52.501 182.056V151.746L77.6111 139.541V169.851L52.501 182.056Z" fill="#345B63"/>
<path d="M116.65 123.995L141.1 135.877L116.65 147.758L92.2138 135.877L116.65 123.995Z" fill="#345B63"/>
<path d="M89.2501 139.541L114.36 151.746V182.056L89.2501 169.851V139.541Z" fill="#345B63"/>
<path d="M118.954 182.056V151.746L144.051 139.541V169.851L118.954 182.056Z" fill="#345B63"/>
<path d="M44.084 0H44V0.097H44.084V0Z" fill="white"/>
<path d="M98.4299 46.3618C98.3582 45.8632 97.9837 45.4969 97.5464 45.4969H95.7544C95.2598 45.4969 94.8584 45.9604 94.8584 46.5316V49.1742C94.8584 49.5425 95.0286 49.8819 95.3046 50.0681C96.1486 50.6351 96.6503 51.6325 96.6503 52.7396C96.6503 54.451 95.4443 55.8436 93.9623 55.8436H72.4583C70.9763 55.8436 69.7703 54.451 69.7703 52.7396C69.7703 51.6346 70.2739 50.6351 71.1161 50.0681C71.392 49.8819 71.5623 49.5425 71.5623 49.1742V46.5316C71.5624 45.9604 71.161 45.4969 70.6664 45.4969H68.8744C68.4353 45.4969 68.0626 45.8632 67.991 46.3618L66.3244 57.9129H100.098L98.4299 46.3618Z" fill="#345B63"/>
<path d="M72.4584 53.7742H93.9624C94.457 53.7742 94.8585 53.3106 94.8585 52.7395C94.8585 52.1684 94.457 51.7049 93.9624 51.7049H93.0664V45.7535C93.0664 45.3892 92.8998 45.0499 92.6273 44.8637C92.3549 44.6754 92.0181 44.6692 91.7421 44.843C89.8085 46.0578 87.5505 45.588 86.1044 43.916C84.4987 42.0618 84.2479 39.1338 85.4879 36.9879L88.2172 32.6547C88.4161 32.3401 88.443 31.9242 88.2924 31.5765C88.1401 31.2309 87.8301 31.0116 87.4932 31.0116H74.2504C73.7558 31.0116 73.3544 31.4752 73.3544 32.0463V51.7049H72.4584C71.9638 51.7049 71.5624 52.1685 71.5624 52.7396C71.5624 53.3107 71.9638 53.7742 72.4584 53.7742Z" fill="#345B63"/>
<path d="M108.298 20.6649C106.189 20.6649 103.508 22.2273 102.714 22.7218L91.2744 20.7001C89.667 20.7001 85.7873 20.8201 84.5293 21.89L77.3613 27.0281C77.0209 27.2722 76.8631 27.7462 76.9725 28.191C77.0836 28.636 77.4348 28.9422 77.8344 28.9422H85.8984C85.9701 28.9422 86.04 28.9318 86.1098 28.9132L87.3105 28.5717C88.9501 28.2945 90.3784 29.7844 90.3784 31.6448C90.3784 32.3629 90.1848 33.0498 89.8175 33.6293L86.9987 38.1011C86.2121 39.4627 86.368 41.292 87.3714 42.4509C87.9342 43.1007 88.6849 43.4608 89.4824 43.4608C90.2799 43.4608 91.029 43.1027 91.5934 42.4509L96.1362 37.2051C97.8332 37.0954 99.385 36.2491 100.537 34.8813C102.127 36.5843 107.22 37.1224 108.229 37.2135C108.252 37.2197 108.275 37.2197 108.299 37.2197C108.523 37.2197 108.741 37.1224 108.906 36.9445C109.091 36.7479 109.195 36.4727 109.195 36.1851V21.6996C109.194 21.1284 108.793 20.6649 108.298 20.6649Z" fill="#345B63"/>
<path d="M66.1864 69.2942C66.1864 69.8653 66.5878 70.3289 67.0824 70.3289H99.3384C99.833 70.3289 100.234 69.8653 100.234 69.2942V59.9822H66.1864V69.2942Z" fill="#345B63"/>
<g filter="url(#filter0_d_59_129)">
<path d="M20.76 224L11.32 211.6V224H4.48V195.92H11.32V208.24L20.68 195.92H28.72L17.84 209.68L29.12 224H20.76ZM58.0472 207.12V212.8H40.4472V207.12H58.0472ZM98.8869 195.92L88.9269 224H80.3669L70.4069 195.92H77.6869L84.6469 217.12L91.6469 195.92H98.8869ZM111.906 224.32C109.719 224.32 107.746 223.853 105.986 222.92C104.252 221.987 102.879 220.653 101.866 218.92C100.879 217.187 100.386 215.16 100.386 212.84C100.386 210.547 100.892 208.533 101.906 206.8C102.919 205.04 104.306 203.693 106.066 202.76C107.826 201.827 109.799 201.36 111.986 201.36C114.172 201.36 116.146 201.827 117.906 202.76C119.666 203.693 121.052 205.04 122.066 206.8C123.079 208.533 123.586 210.547 123.586 212.84C123.586 215.133 123.066 217.16 122.026 218.92C121.012 220.653 119.612 221.987 117.826 222.92C116.066 223.853 114.092 224.32 111.906 224.32ZM111.906 218.4C113.212 218.4 114.319 217.92 115.226 216.96C116.159 216 116.626 214.627 116.626 212.84C116.626 211.053 116.172 209.68 115.266 208.72C114.386 207.76 113.292 207.28 111.986 207.28C110.652 207.28 109.546 207.76 108.666 208.72C107.786 209.653 107.346 211.027 107.346 212.84C107.346 214.627 107.772 216 108.626 216.96C109.506 217.92 110.599 218.4 111.906 218.4ZM139.654 218.2V224H136.174C133.694 224 131.761 223.4 130.374 222.2C128.988 220.973 128.294 218.987 128.294 216.24V207.36H125.574V201.68H128.294V196.24H135.134V201.68H139.614V207.36H135.134V216.32C135.134 216.987 135.294 217.467 135.614 217.76C135.934 218.053 136.468 218.2 137.214 218.2H139.654ZM164.504 212.48C164.504 213.12 164.464 213.787 164.384 214.48H148.904C149.011 215.867 149.451 216.933 150.224 217.68C151.024 218.4 151.998 218.76 153.144 218.76C154.851 218.76 156.038 218.04 156.704 216.6H163.984C163.611 218.067 162.931 219.387 161.944 220.56C160.984 221.733 159.771 222.653 158.304 223.32C156.838 223.987 155.198 224.32 153.384 224.32C151.198 224.32 149.251 223.853 147.544 222.92C145.838 221.987 144.504 220.653 143.544 218.92C142.584 217.187 142.104 215.16 142.104 212.84C142.104 210.52 142.571 208.493 143.504 206.76C144.464 205.027 145.798 203.693 147.504 202.76C149.211 201.827 151.171 201.36 153.384 201.36C155.544 201.36 157.464 201.813 159.144 202.72C160.824 203.627 162.131 204.92 163.064 206.6C164.024 208.28 164.504 210.24 164.504 212.48ZM157.504 210.68C157.504 209.507 157.104 208.573 156.304 207.88C155.504 207.187 154.504 206.84 153.304 206.84C152.158 206.84 151.184 207.173 150.384 207.84C149.611 208.507 149.131 209.453 148.944 210.68H157.504Z" fill="#152D35"/>
</g>
<defs>
<filter id="filter0_d_59_129" x="0.479996" y="195.92" width="168.024" height="36.4" filterUnits="userSpaceOnUse" color-interpolation-filters="sRGB">
<feFlood flood-opacity="0" result="BackgroundImageFix"/>
<feColorMatrix in="SourceAlpha" type="matrix" values="0 0 0 0 0 0 0 0 0 0 0 0 0 0 0 0 0 0 127 0" result="hardAlpha"/>
<feOffset dy="4"/>
<feGaussianBlur stdDeviation="2"/>
<feComposite in2="hardAlpha" operator="out"/>
<feColorMatrix type="matrix" values="0 0 0 0 0 0 0 0 0 0 0 0 0 0 0 0 0 0 0.25 0"/>
<feBlend mode="normal" in2="BackgroundImageFix" result="effect1_dropShadow_59_129"/>
<feBlend mode="normal" in="SourceGraphic" in2="effect1_dropShadow_59_129" result="shape"/>
</filter>
</defs>
</svg>
