<?xml version="1.0" encoding="utf-8"?>
<svg viewBox="173.164 117.278 118.078 166.575" width="118.078" height="166.575" xmlns="http://www.w3.org/2000/svg">
  <g transform="matrix(1, 0, 0, 1, 31.07346, -135.448151)">
    <path d="M 169.491 360.392 L 193.941 372.274 L 169.491 384.155 L 145.055 372.274 L 169.491 360.392 Z" fill="#345B63"/>
    <path d="M 142.091 375.938 L 167.201 388.143 L 167.201 418.453 L 142.091 406.248 L 142.091 375.938 Z" fill="#345B63"/>
    <path d="M 171.795 418.453 L 171.795 388.143 L 196.892 375.938 L 196.892 406.248 L 171.795 418.453 Z" fill="#345B63"/>
  </g>
  <g transform="matrix(1, 0, 0, 1, -271.751404, -151.832336)">
    <path d="M 520.344 294.807 C 520.272 294.308 519.897 293.942 519.46 293.942 L 517.668 293.942 C 517.174 293.942 516.772 294.405 516.772 294.977 L 516.772 297.619 C 516.772 297.987 516.942 298.327 517.218 298.513 C 518.062 299.08 518.564 300.077 518.564 301.185 C 518.564 302.896 517.358 304.289 515.876 304.289 L 494.372 304.289 C 492.89 304.289 491.684 302.896 491.684 301.185 C 491.684 300.08 492.188 299.08 493.03 298.513 C 493.306 298.327 493.476 297.987 493.476 297.619 L 493.476 294.977 C 493.476 294.405 493.075 293.942 492.58 293.942 L 490.788 293.942 C 490.349 293.942 489.976 294.308 489.905 294.807 L 488.238 306.358 L 522.012 306.358 L 520.344 294.807 Z" fill="#345B63"/>
    <path d="M 494.372 302.219 L 515.876 302.219 C 516.371 302.219 516.772 301.756 516.772 301.184 C 516.772 300.613 516.371 300.15 515.876 300.15 L 514.98 300.15 L 514.98 294.198 C 514.98 293.834 514.814 293.495 514.541 293.309 C 514.269 293.12 513.932 293.114 513.656 293.288 C 511.722 294.503 509.464 294.033 508.018 292.361 C 506.412 290.507 506.162 287.579 507.402 285.433 L 510.131 281.1 C 510.33 280.785 510.357 280.369 510.206 280.021 C 510.054 279.676 509.744 279.457 509.407 279.457 L 496.164 279.457 C 495.67 279.457 495.268 279.92 495.268 280.491 L 495.268 300.15 L 494.372 300.15 C 493.878 300.15 493.476 300.613 493.476 301.185 C 493.476 301.756 493.878 302.219 494.372 302.219 Z" fill="#345B63"/>
    <path d="M 530.212 269.11 C 528.103 269.11 525.422 270.672 524.628 271.167 L 513.188 269.145 C 511.581 269.145 507.701 269.265 506.443 270.335 L 499.275 275.473 C 498.935 275.717 498.777 276.191 498.886 276.636 C 498.997 277.081 499.349 277.387 499.748 277.387 L 507.812 277.387 C 507.884 277.387 507.954 277.377 508.024 277.358 L 509.224 277.017 C 510.864 276.739 512.292 278.229 512.292 280.09 C 512.292 280.808 512.099 281.495 511.731 282.074 L 508.912 286.546 C 508.126 287.908 508.282 289.737 509.285 290.896 C 509.848 291.546 510.599 291.906 511.396 291.906 C 512.194 291.906 512.943 291.548 513.507 290.896 L 518.05 285.65 C 519.747 285.54 521.299 284.694 522.451 283.326 C 524.041 285.029 529.134 285.567 530.143 285.658 C 530.166 285.665 530.189 285.665 530.213 285.665 C 530.437 285.665 530.655 285.567 530.82 285.389 C 531.005 285.193 531.109 284.918 531.109 284.63 L 531.109 270.145 C 531.108 269.573 530.707 269.11 530.212 269.11 Z" fill="#345B63"/>
    <path d="M 488.1 317.739 C 488.1 318.31 488.502 318.774 488.996 318.774 L 521.252 318.774 C 521.747 318.774 522.148 318.31 522.148 317.739 L 522.148 308.427 L 488.1 308.427 L 488.1 317.739 Z" fill="#345B63"/>
  </g>
  <g transform="matrix(1, 0, 0, 1, 94.350327, -134.600708)">
    <path d="M 169.491 360.392 L 193.941 372.274 L 169.491 384.155 L 145.055 372.274 L 169.491 360.392 Z" fill="#345B63"/>
    <path d="M 142.091 375.938 L 167.201 388.143 L 167.201 418.453 L 142.091 406.248 L 142.091 375.938 Z" fill="#345B63"/>
    <path d="M 171.795 418.453 L 171.795 388.143 L 196.892 375.938 L 196.892 406.248 L 171.795 418.453 Z" fill="#345B63"/>
  </g>
  <g transform="matrix(1, 0, 0, 1, 63.276875, -187.708054)">
    <path d="M 169.491 360.392 L 193.941 372.274 L 169.491 384.155 L 145.055 372.274 L 169.491 360.392 Z" fill="#345B63"/>
    <path d="M 142.091 375.938 L 167.201 388.143 L 167.201 418.453 L 142.091 406.248 L 142.091 375.938 Z" fill="#345B63"/>
    <path d="M 171.795 418.453 L 171.795 388.143 L 196.892 375.938 L 196.892 406.248 L 171.795 418.453 Z" fill="#345B63"/>
  </g>
</svg>