<svg width="148" height="152" viewBox="0 0 148 152" fill="none" xmlns="http://www.w3.org/2000/svg">
<ellipse cx="74" cy="75.731" rx="74" ry="75.731" fill="#152D35"/>
<rect width="100" height="102.339" transform="translate(24 24.5614)" fill="#152D35"/>
<path d="M42.75 120.504H105.25V104.514C105.243 98.5787 102.937 92.8884 98.8357 88.6916C94.7347 84.4947 89.1746 82.134 83.375 82.1272H64.625C58.8254 82.134 53.2653 84.4947 49.1644 88.6916C45.0634 92.8884 42.7566 98.5787 42.75 104.514V120.504Z" fill="#DAFCF4"/>
<path d="M52.125 53.3443C52.125 57.772 53.4079 62.1002 55.8116 65.7817C58.2153 69.4632 61.6317 72.3326 65.6288 74.027C69.6259 75.7213 74.0243 76.1647 78.2676 75.3009C82.5109 74.4371 86.4087 72.305 89.468 69.1741C92.5272 66.0433 94.6106 62.0544 95.4547 57.7118C96.2987 53.3692 95.8655 48.868 94.2099 44.7773C92.5542 40.6867 89.7504 37.1904 86.1531 34.7305C82.5558 32.2706 78.3265 30.9576 74 30.9576C68.1984 30.9576 62.6344 33.3162 58.532 37.5146C54.4297 41.7129 52.125 47.407 52.125 53.3443Z" fill="#DAFCF4"/>
</svg>
